<?xml version="1.0" encoding="utf-8"?>
<!-- Generator: Adobe Illustrator 27.2.0, SVG Export Plug-In . SVG Version: 6.00 Build 0)  -->
<svg version="1.1" id="Capa_1" xmlns="http://www.w3.org/2000/svg" xmlns:xlink="http://www.w3.org/1999/xlink" x="0px" y="0px"
	 viewBox="0 0 461.04 106.44" style="enable-background:new 0 0 461.04 106.44;" xml:space="preserve">
<style type="text/css">
	.st0{fill-rule:evenodd;clip-rule:evenodd;fill:#9078B4;}
</style>
<g>
	<path class="st0" d="M31.15,67.34L8.96,82.62l22.19,15.27c8.84-4.42,40.24-12.79,53.45-15.27C71.39,80.14,39.99,71.76,31.15,67.34"
		/>
	<path class="st0" d="M84.6,82.62c0,0-20.23-6.77-35.82-20.39c-15.59-13.62-14.63-27.58-9.82-30.5c3.23-1.96,7.68-0.86,9.72,2.67
		C52.93,41.76,55.88,56.5,84.6,82.62"/>
	<path class="st0" d="M83.86,74.4c-15.88-16.94-15.36-48.88,0-66.7C99.22,25.52,99.73,57.46,83.86,74.4"/>
	<path class="st0" d="M136.56,67.34l22.19,15.27l-22.19,15.27c-8.84-4.42-40.24-12.79-53.45-15.27
		C96.32,80.14,127.72,71.76,136.56,67.34"/>
	<path class="st0" d="M83.11,82.62c0,0,20.23-6.77,35.82-20.39c15.59-13.62,14.63-27.58,9.81-30.5c-3.23-1.96-7.68-0.86-9.72,2.67
		C114.78,41.76,111.84,56.5,83.11,82.62"/>
	<path class="st0" d="M339.82,97.93h-1.09v-1.08h0.55c0.12,0,0.28-0.05,0.4-0.09c0.41-0.14,0.83-0.33,1.23-0.5
		c0.56-0.24,1.08-0.56,1.55-0.96c0.52-0.44,0.91-1.1,1.19-1.72c0.4-0.88,0.58-1.85,0.65-2.8V55.75c-0.06-1.42-0.46-2.77-1.38-3.89
		c-0.59-0.71-1.44-1.58-2.36-1.84l-3.39-0.56l22.1-8.02v7.77c0.66-1.74,1.62-3.35,2.94-4.76c2.51-2.7,6.01-3.58,9.59-3.58
		c4.83,0,9.55,1.08,13.41,4.11c2.65,2.08,4.63,4.61,5.8,7.64c0.49-2.77,1.53-5.37,3.34-7.61c2.51-3.1,6.21-4.13,10.08-4.13
		c5.48,0,10.69,1.39,14.72,5.24c3.51,3.36,5.49,7.43,5.49,12.31v32.28c0,1.45,0.32,2.86,1.27,3.99c0.63,0.76,1.5,1.6,2.49,1.85
		l1.85,0.46l-0.12,0.95H404.1v-1.08h0.54c0.12,0,0.28-0.05,0.4-0.09c0.41-0.14,0.83-0.33,1.23-0.5c0.56-0.24,1.08-0.56,1.55-0.96
		c0.52-0.44,0.91-1.1,1.19-1.72c0.4-0.88,0.58-1.85,0.65-2.8V53.54c0-2.75-0.51-5.55-2.1-7.85c-1.4-2.03-3.35-2.95-5.8-2.95
		c-0.91,0-1.85,0.3-2.68,0.65c-1.17,0.5-2.26,1.28-3.21,2.11c-1.26,1.1-2.13,2.66-2.74,4.19c-0.81,2.02-1.16,4.19-1.23,6.35
		c0.15,0.78,0.23,1.57,0.23,2.36v32.28c0,1.44,0.3,2.86,1.21,4c0.61,0.77,1.45,1.59,2.43,1.84l1.85,0.46l-0.12,0.95h-26.01v-1.08
		h0.54c0.13,0,0.28-0.05,0.4-0.09c0.43-0.14,0.87-0.33,1.29-0.51c0.56-0.23,1.08-0.53,1.52-0.94c0.49-0.45,0.87-1.13,1.15-1.74
		c0.4-0.88,0.58-1.85,0.65-2.8V53.54c0-2.75-0.52-5.55-2.1-7.85c-1.4-2.03-3.35-2.95-5.8-2.95c-2.38,0-4.58,1.58-6.22,3.15
		c-2.61,2.48-3.47,6.17-3.65,9.63l0,35.16c0,1.45,0.32,2.86,1.26,3.99c0.63,0.76,1.5,1.6,2.49,1.85l1.85,0.46l-0.12,0.95H339.82z
		 M310.08,97.93h-1.09v-1.08h0.55c0.13,0,0.29-0.05,0.4-0.09c0.41-0.14,0.83-0.33,1.23-0.5c0.56-0.24,1.08-0.56,1.55-0.96
		c0.52-0.44,0.91-1.1,1.19-1.72c0.4-0.88,0.58-1.85,0.65-2.8V30.06c-0.06-1.45-0.44-2.87-1.38-4.01c-0.57-0.68-1.43-1.56-2.34-1.72
		l-0.04-0.01l-3.1-0.77l21.82-7.92v75.05c0,1.45,0.33,2.86,1.27,3.99c0.63,0.77,1.5,1.6,2.49,1.85l1.85,0.46L335,97.93H310.08z
		 M184.66,97.93h-1.09v-1.08h0.54c0.13,0,0.28-0.05,0.4-0.09c0.43-0.14,0.87-0.33,1.29-0.51c0.56-0.23,1.07-0.55,1.5-0.98
		c0.51-0.51,0.92-1.23,1.23-1.88c0.41-0.86,0.58-1.77,0.58-2.72V23.1c0-1.45-0.32-2.86-1.26-3.99c-0.63-0.76-1.5-1.6-2.49-1.85
		l-1.85-0.46l0.12-0.95h32.3c6.45,0,12.83,1.25,18.39,4.65c4.19,2.57,7.72,6.21,7.72,11.39c0,4.31-2.51,7.6-5.83,10.09
		c-3.42,2.58-7.42,4.15-11.57,5.06c6.04,1.3,11.53,3.91,16.13,8.23c4.85,4.55,7.63,10.08,7.63,16.77c0,7.62-3.65,13.6-9.52,18.3
		c-6.65,5.33-14.48,7.58-22.96,7.58H184.66z M300.43,89.18l1.65-2.2v2.36l-0.09,0.14c-0.23,0.35-0.51,0.7-0.78,1.03
		c-0.64,0.78-1.57,1.59-2.31,2.26c-1.15,1.04-2.4,1.98-3.73,2.78c-1.53,0.93-3.27,1.63-4.97,2.19c-1.98,0.66-4.04,1.01-6.13,1.01
		c-8.31,0-15.67-2.57-21.61-8.43c-5.73-5.65-8.55-12.53-8.55-20.57c0-7.83,2.59-14.67,7.96-20.39c5.2-5.55,11.57-8.5,19.2-8.5
		c5.78,0,10.98,1.78,15.6,5.26c4.7,3.55,7.97,8.17,9.9,13.73l0.13,0.36l-14.37,11.21V71.3l-20.09,15.72
		c1.24,2.71,2.92,5.26,5.23,7.17c2.08,1.73,4.46,2.65,7.18,2.65c1.86,0,3.68-0.3,5.44-0.9c1.59-0.54,3.16-1.23,4.57-2.14
		c1.2-0.78,2.37-1.61,3.48-2.51C298.93,90.66,299.76,89.95,300.43,89.18 M204.08,17.74v28.31h11.84c3.27,0,5.8-1.53,7.79-4.08
		c2.3-2.93,3.24-6.38,3.24-10.08c0-3.7-0.94-7.15-3.24-10.08c-1.99-2.54-4.52-4.07-7.79-4.07H204.08z M204.08,47.94v48.1h11.84
		c5.31,0,9.29-2.79,12.35-6.95c3.68-5.02,5.16-10.86,5.16-17.04c0-6.2-1.49-12.05-5.16-17.1c-3.05-4.18-7.02-7.01-12.35-7.01H204.08
		z M271.47,85.18l20.84-16.16c-0.09-2.87-0.36-5.73-0.8-8.57c-0.45-2.91-1.13-5.79-2.06-8.59c-0.8-2.39-1.94-4.73-3.6-6.64
		c-1.26-1.45-2.83-2.48-4.8-2.48c-4.21,0-6.88,4.42-8.42,7.78c-2.73,5.98-3.65,12.69-3.65,19.21
		C268.99,74.96,269.66,80.26,271.47,85.18"/>
	<path class="st0" d="M449.76,95.77c-1.54,1.54-3.39,2.31-5.55,2.31c-2.16,0-4.01-0.77-5.55-2.31c-1.54-1.54-2.31-3.39-2.31-5.55
		s0.77-4.01,2.31-5.55c1.54-1.54,3.39-2.31,5.55-2.31c2.16,0,4.01,0.77,5.55,2.31c1.54,1.54,2.31,3.39,2.31,5.55
		S451.31,94.22,449.76,95.77"/>
</g>
</svg>
